<?xml version="1.0" encoding="UTF-8"?>
<svg id="Layer_1" xmlns="http://www.w3.org/2000/svg" version="1.1" viewBox="0 0 1500 1500">
  <!-- Generator: Adobe Illustrator 30.2.1, SVG Export Plug-In . SVG Version: 2.1.1 Build 1)  -->
  <g>
    <path d="M211.95,895.27h8.51v75.41h-8.51v-75.41Z"/>
    <path d="M237.69,917.25h8.19v9.59c3.88-6.89,10.88-11.1,18.53-11.1,10.88,0,18.74,6.46,18.74,18.64v36.3h-8.19v-34.36c0-8.51-5.28-13.25-13.14-13.25-8.4,0-15.94,7.86-15.94,18.2v29.41h-8.19v-53.43Z"/>
    <path d="M300.38,923.61h-9.16v-6.36h9.16v-14.43h8.19v14.43h12.82v6.36h-12.82v33.07c0,5.6,2.37,8.3,7.43,8.3,1.29,0,2.69-.22,4.09-.65l.75,6.79c-2.05.76-4.2,1.08-6.68,1.08-8.19,0-13.79-4.85-13.79-15.08v-33.5Z"/>
    <path d="M354.67,915.74c15.62,0,25.64,11.1,25.64,26.72v2.8h-44.38c.33,5.71,2.15,10.56,5.49,14.33s7.75,5.6,13.14,5.6c8.94,0,14.44-4.42,18.21-12.17l5.93,3.55c-5.06,10.34-12.71,15.62-24.45,15.62-14.54,0-26.39-11.85-26.39-28.22-.33-16.16,12.06-28.55,26.82-28.22ZM371.9,938.47c-.43-10.02-7.87-16.05-17.35-16.05-4.63,0-8.72,1.51-12.17,4.63-3.45,3.02-5.6,6.79-6.46,11.42h35.98Z"/>
    <path d="M392.79,917.25h8.19v9.7c2.69-6.57,8.4-11.2,15.3-11.2,1.62,0,3.12.22,4.41.54l-1.29,7.43c-1.19-.43-2.58-.64-4.2-.64-7.86,0-14.22,8.72-14.22,19.17v28.44h-8.19v-53.43Z"/>
    <path d="M429.73,897.64h9.8v10.13h-9.8v-10.13ZM430.6,917.25h8.19v53.43h-8.19v-53.43Z"/>
    <path d="M478.42,915.74c14.97,0,27.9,10.56,27.9,28.22s-12.93,28.22-27.9,28.22-27.79-10.56-27.79-28.22,12.92-28.22,27.79-28.22ZM478.42,923.07c-10.88,0-19.5,8.83-19.5,20.9s8.62,20.9,19.5,20.9,19.61-8.84,19.61-20.9-8.62-20.9-19.61-20.9Z"/>
    <path d="M518.7,917.25h8.19v9.7c2.69-6.57,8.4-11.2,15.3-11.2,1.62,0,3.12.22,4.41.54l-1.29,7.43c-1.19-.43-2.58-.64-4.2-.64-7.86,0-14.22,8.72-14.22,19.17v28.44h-8.19v-53.43Z"/>
    <path d="M548.1,983.28l3.34-12.6h-3.67v-10.34h10.23v10.34l-7.86,13.36-2.05-.76Z"/>
    <path d="M635.67,893.77c14.33,0,25.96,7.54,31.46,19.28l-6.68,4.74c-6.14-11.63-13.89-16.37-24.99-16.37-15.4,0-28.12,13.57-28.12,31.56s11.85,31.56,28.12,31.56c11.31,0,19.28-5.17,25.21-16.37l6.46,4.53c-7.76,12.92-16.59,19.5-31.99,19.5-20.57.32-36.73-17.13-36.41-39.21-.43-21.76,17.23-39.54,36.95-39.21Z"/>
    <path d="M678.21,917.25h8.19v9.7c2.69-6.57,8.4-11.2,15.3-11.2,1.62,0,3.12.22,4.41.54l-1.29,7.43c-1.19-.43-2.58-.64-4.2-.64-7.86,0-14.22,8.72-14.22,19.17v28.44h-8.19v-53.43Z"/>
    <path d="M729.27,938.58l18.31-2.91v-2.48c0-7.22-4.63-10.77-12.82-10.77s-13.03,4.09-13.03,8.94c0,.43.11.97.21,1.51l-7,2.37c-.54-1.4-.76-2.8-.76-4.2,0-8.4,8.4-15.3,20.57-15.3,13.47,0,21.01,6.36,21.01,17.45v24.13c0,6.14.75,9.16,3.34,13.36h-8.29c-2.15-2.69-3.23-6.25-3.23-10.77-1.4,3.66-3.77,6.68-7.32,8.94-3.45,2.26-7.22,3.34-11.2,3.34-10.77,0-17.88-6.79-17.88-16.37s7.65-15.51,18.1-17.24ZM747.58,942.13l-16.7,2.8c-7.32,1.19-11.53,5.06-11.53,10.56s4.31,9.48,10.88,9.48c10.77,0,17.34-9.91,17.34-20.58v-2.26Z"/>
    <path d="M772.46,923.61h-8.3v-6.36h8.3v-10.12c0-10.77,5.71-17.24,16.37-17.24,2.05,0,3.88.32,5.49,1.08l-1.4,7c-1.19-.54-2.58-.76-4.2-.76-4.63,0-7.97,3.23-7.97,9.37v10.66h12.6v6.36h-12.6v47.07h-8.29v-47.07Z"/>
    <path d="M809.51,923.61h-9.16v-6.36h9.16v-14.43h8.19v14.43h12.82v6.36h-12.82v33.07c0,5.6,2.37,8.3,7.43,8.3,1.29,0,2.69-.22,4.09-.65l.75,6.79c-2.05.76-4.2,1.08-6.68,1.08-8.19,0-13.79-4.85-13.79-15.08v-33.5Z"/>
    <path d="M885.55,926.73c-3.77-5.49-5.6-10.66-5.6-15.62,0-10.02,7.76-17.34,17.56-17.34s16.81,5.82,16.81,14.87c0,4.09-1.4,7.65-4.1,10.56-2.69,2.91-7.22,6.03-13.79,9.37l18.1,23.48c2.48-4.2,4.31-9.8,5.71-16.59l6.46,3.66c-1.62,7.22-4.09,13.47-7.65,18.96l9.8,12.6h-9.7l-5.17-6.68c-5.49,5.49-12.17,8.19-20.14,8.19-13.57,0-23.27-9.59-23.27-22.41,0-10.23,5.39-17.45,14.97-23.05ZM889.75,932.22c-7.32,4.63-10.99,9.7-10.99,17.45,0,9.37,6.79,15.4,15.73,15.4,5.93,0,11.1-2.15,15.3-6.57l-20.04-26.29ZM897.5,900.44c-5.28,0-10.13,4.09-10.13,10.56,0,4.2,1.62,7.86,4.96,12.28,11.1-5.06,14.76-8.4,14.76-14.33,0-4.74-3.98-8.51-9.59-8.51Z"/>
    <path d="M972.25,895.27h20.47c22.51,0,38.13,14.33,38.13,37.7s-15.62,37.7-38.13,37.7h-20.47v-75.41ZM992.28,963.03c18.2,0,29.95-10.34,29.95-30.05s-11.74-30.05-29.95-30.05h-11.53v60.11h11.53Z"/>
    <path d="M1068,915.74c15.62,0,25.64,11.1,25.64,26.72v2.8h-44.39c.33,5.71,2.15,10.56,5.49,14.33s7.75,5.6,13.14,5.6c8.94,0,14.43-4.42,18.21-12.17l5.92,3.55c-5.06,10.34-12.71,15.62-24.45,15.62-14.54,0-26.39-11.85-26.39-28.22-.33-16.16,12.06-28.55,26.82-28.22ZM1085.24,938.47c-.43-10.02-7.87-16.05-17.35-16.05-4.63,0-8.73,1.51-12.17,4.63-3.45,3.02-5.6,6.79-6.46,11.42h35.98Z"/>
    <path d="M1107.52,952.47c2.59,8.08,8.08,12.71,15.94,12.71,7.22,0,11.96-3.88,11.96-9.59,0-5.28-4.2-8.19-13.68-9.91-10.88-1.83-18.1-7-18.1-15.73,0-4.31,1.72-7.76,5.28-10.34,3.55-2.58,7.97-3.88,13.14-3.88,10.45,0,16.91,4.53,20.69,13.04l-6.36,3.66c-2.48-6.79-7.76-10.13-14.22-10.13s-10.98,2.8-10.98,7.54c0,5.06,4.95,7.86,14.43,9.69,11.53,2.15,17.66,7,17.66,15.73s-7.32,16.91-19.93,16.91c-11.2,0-19.18-6.36-22.73-15.51l6.89-4.2Z"/>
    <path d="M1154.7,897.64h9.8v10.13h-9.8v-10.13ZM1155.56,917.25h8.19v53.43h-8.19v-53.43Z"/>
    <path d="M1180.44,972.83l7.64,2.15c-.54,1.62-.86,2.91-.86,3.98,0,5.17,5.71,8.4,15.08,8.4,11.2,0,17.02-6.68,17.02-19.71v-7.86c-3.88,6.36-9.91,10.02-18.21,10.02-14.11,0-24.99-10.56-24.99-27.04s11.42-27.04,24.99-27.04c8.29,0,14.76,3.66,18.21,9.37v-7.87h8.19v49.88c0,17.13-9.15,27.04-25.21,27.04-14.76,0-23.38-6.79-23.38-15.62,0-2.05.54-3.88,1.51-5.71ZM1202.09,922.85c-10.77,0-17.77,7.75-17.77,19.93s7,19.93,17.77,19.93,17.88-7.76,17.88-19.93-7.11-19.93-17.88-19.93Z"/>
    <path d="M1242.59,917.25h8.19v9.59c3.88-6.89,10.88-11.1,18.53-11.1,10.88,0,18.74,6.46,18.74,18.64v36.3h-8.19v-34.36c0-8.51-5.28-13.25-13.14-13.25-8.4,0-15.94,7.86-15.94,18.2v29.41h-8.19v-53.43Z"/>
  </g>
  <g>
    <path d="M751.86,673.63l-1.08.11h0s-.75,0-.75,0l-1.08-.12-2.49,23.23-.57,116.13c1.37.03,2.74.05,4.12.05,1.19,0,2.37-.02,3.55-.04l.57-116.21-2.26-23.14Z"/>
    <path d="M743.76,672.55l-1.04-.32-.69-.29h0s-.95-.52-.95-.52l-11.19,20.51-45.04,107.24c2.33,1.04,4.69,2.03,7.07,2.96l45.08-107.34,6.76-22.25Z"/>
    <path d="M736.69,668.46l-.84-.69h0s-.53-.53-.53-.53h0s-.68-.84-.68-.84l-18.19,14.66-82.56,81.74-.1.1c1.76,1.86,3.55,3.68,5.4,5.45l82.73-81.93,14.76-17.96Z"/>
    <path d="M731.72,661.98l-.51-.96-.28-.69-.31-1.04-22.41,6.58-107.67,43.97c.91,2.4,1.87,4.76,2.89,7.1l107.78-44.02,20.51-10.95Z"/>
    <path d="M729.62,654.08l-.11-1.08v-.75s.12-1.08.12-1.08l-23.23-2.49-116.09-.57c-.05,1.71-.09,3.42-.09,5.14,0,.85.02,1.69.03,2.53l116.23.57,23.14-2.26Z"/>
    <path d="M730.69,645.98l.32-1.04.29-.69.52-.95-20.51-11.19-106.86-44.88c-1.06,2.32-2.06,4.68-3,7.06l106.99,44.93,22.25,6.76Z"/>
    <path d="M734.78,638.91l.69-.84.53-.52.85-.68-14.66-18.19-81.32-82.13c-1.87,1.75-3.69,3.54-5.47,5.37l81.43,82.23,17.96,14.76Z"/>
    <path d="M741.27,633.95l.96-.51.69-.28,1.04-.31-6.58-22.42-43.61-106.78c-2.4.9-4.77,1.86-7.11,2.87l43.67,106.91,10.95,20.51Z"/>
    <path d="M749.16,631.84l1.09-.11h.74s1.08.12,1.08.12l2.49-23.23.57-115.07c-1.7-.05-3.41-.09-5.13-.09-.85,0-1.69.02-2.54.03l-.56,115.21,2.26,23.14Z"/>
    <path d="M757.26,632.92l1.04.32.69.29h0s.95.52.95.52l11.19-20.51,44.52-106c-2.33-1.05-4.68-2.05-7.06-2.99l-44.57,106.12-6.76,22.25Z"/>
    <path d="M764.33,637.01l.84.69.53.53h0s.68.84.68.84l18.19-14.66,81.63-80.83c-1.75-1.86-3.55-3.68-5.39-5.45l-81.71,80.91-14.76,17.96Z"/>
    <path d="M769.3,643.49l.51.96.28.69.31,1.04,22.41-6.58,106.44-43.48c-.92-2.39-1.89-4.76-2.91-7.09l-106.53,43.52-20.51,10.95Z"/>
    <path d="M771.41,651.39l.11,1.08h0v.75s-.12,1.08-.12,1.08l23.23,2.49,115.11.57c.03-1.37.05-2.74.05-4.11,0-1.19-.02-2.37-.05-3.56l-115.19-.56-23.14,2.26Z"/>
    <path d="M770.33,659.49l-.32,1.04-.29.69h0l-.52.95,20.51,11.19,106.38,44.68c1.04-2.33,2.02-4.69,2.94-7.08l-106.46-44.71-22.25-6.76Z"/>
    <path d="M766.24,666.56l-.69.84-.53.52-.85.68,14.66,18.19,81.36,82.17c1.85-1.76,3.66-3.57,5.42-5.42l-81.42-82.22-17.96-14.76Z"/>
    <path d="M759.75,671.52l-.96.51-.69.28-1.04.31,6.58,22.42,43.84,107.33c2.39-.92,4.75-1.9,7.08-2.93l-43.87-107.4-10.95-20.51Z"/>
  </g>
</svg>